<?xml version="1.0" standalone="no"?>
<!DOCTYPE svg PUBLIC "-//W3C//DTD SVG 20010904//EN"
 "http://www.w3.org/TR/2001/REC-SVG-20010904/DTD/svg10.dtd">
<svg version="1.0" xmlns="http://www.w3.org/2000/svg"
 width="196.000000pt" height="196.000000pt" viewBox="0 0 196.000000 196.000000"
 preserveAspectRatio="xMidYMid meet">
<metadata>
Created by potrace 1.11, written by Peter Selinger 2001-2013
</metadata>
<g transform="translate(0.000000,196.000000) scale(0.100000,-0.100000)"
fill="#000000" stroke="none">
<path d="M787 1828 c-13 -24 -43 -79 -67 -123 -24 -44 -87 -159 -140 -255
-292 -528 -572 -1042 -576 -1058 -3 -9 26 -71 66 -139 38 -68 70 -127 70 -132
0 -6 8 -14 18 -19 9 -5 386 -8 837 -8 l820 1 74 146 75 147 -366 658 c-201
363 -378 682 -393 709 -15 28 -36 65 -47 83 l-20 32 -163 0 -163 0 -25 -42z
m215 -855 c8 -16 29 -53 45 -83 17 -30 49 -89 72 -131 22 -42 41 -80 41 -85 0
-5 -79 -9 -182 -9 -101 1 -182 4 -181 8 4 17 178 326 183 327 3 0 13 -12 22
-27z"/>
</g>
</svg>
